<svg width="210" height="310" viewBox="0 0 210 310" fill="none" xmlns="http://www.w3.org/2000/svg">
    <rect x="0" y="50" width="30" height="30" fill="#C4C4C4"/>
    <rect x="0" y="100" width="30" height="30" fill="#C4C4C4"/>
    <rect x="0" y="150" width="30" height="30" fill="#C4C4C4"/>
    <rect x="0" y="200" width="30" height="30" fill="#C4C4C4"/>
    <rect x="0" y="250" width="30" height="30" fill="#C4C4C4"/>
    <circle cx="115" cy="115" r="15" fill="#C4C4C4"/>
    <circle cx="115" cy="165" r="15" fill="#C4C4C4"/>
    <circle cx="115" cy="215" r="15" fill="#C4C4C4"/>
    <circle cx="165" cy="165" r="15" fill="#C4C4C4"/>
    <line x1="100" y1="115" x2="30" y2="65" stroke="black"/>
    <line x1="100" y1="115" x2="30" y2="115" stroke="black"/>
    <line x1="100" y1="115" x2="30" y2="165" stroke="black"/>
    <line x1="100" y1="115" x2="30" y2="215" stroke="black"/>
    <line x1="100" y1="115" x2="30" y2="265" stroke="black"/>
    <line x1="100" y1="165" x2="30" y2="65" stroke="black"/>
    <line x1="100" y1="165" x2="30" y2="115" stroke="black"/>
    <line x1="100" y1="165" x2="30" y2="165" stroke="black"/>
    <line x1="100" y1="165" x2="30" y2="215" stroke="black"/>
    <line x1="100" y1="165" x2="30" y2="265" stroke="black"/>
    <line x1="100" y1="215" x2="30" y2="65" stroke="black"/>
    <line x1="100" y1="215" x2="30" y2="115" stroke="black"/>
    <line x1="100" y1="215" x2="30" y2="165" stroke="black"/>
    <line x1="100" y1="215" x2="30" y2="215" stroke="black"/>
    <line x1="100" y1="215" x2="30" y2="265" stroke="black"/>
    <line x1="150" y1="165" x2="130" y2="115" stroke="black"/>
    <line x1="150" y1="165" x2="130" y2="165" stroke="black"/>
    <line x1="150" y1="165" x2="130" y2="215" stroke="black"/>
</svg>